<svg width="85" height="96" viewBox="0 0 85 96" fill="none" xmlns="http://www.w3.org/2000/svg">
<path d="M49.8713 58.5341L45.8092 26.9873L25.718 51.592L49.8713 58.5341Z" fill="#EC4899"/>
<path d="M41.3889 0.898264C39.5747 0.690079 37.7501 0.585313 35.9241 0.584473H0V50.8655L41.3889 0.898264Z" fill="#EC4899"/>
<path d="M64.2527 9.9165L73.2795 77.8329C79.9691 69.4183 83.6034 58.9817 83.5873 48.232C83.5911 40.7773 81.8433 33.426 78.4849 26.7707C75.1265 20.1153 70.2515 14.3422 64.2527 9.9165V9.9165Z" fill="#EC4899"/>
<path d="M52.3544 80.0284L12.2035 68.4897L0 83.4958V95.8956H35.9212C42.0566 95.9036 48.1354 94.7226 53.8216 92.4181L52.3544 80.0298V80.0284Z" fill="#EC4899"/>
</svg>
